<svg width="177" height="177" viewBox="0 0 177 177" fill="none" xmlns="http://www.w3.org/2000/svg">
<circle cx="88.5" cy="88.5" r="88.5" fill="#EC622A"/>
<path d="M146.691 72.7291C146.693 71.7342 146.498 70.7488 146.117 69.8296C145.736 68.9104 145.177 68.0757 144.473 67.3734L107.313 30.2186C106.609 29.5152 105.774 28.9573 104.855 28.5766C103.936 28.1959 102.951 28 101.957 28C100.962 28 99.9772 28.1959 99.0583 28.5766C98.1393 28.9573 97.3044 29.5152 96.6011 30.2186L81.0586 45.7611L49.4326 57.6249C48.1881 58.0907 47.088 58.8758 46.2428 59.9014C45.3977 60.9269 44.8373 62.1568 44.6179 63.4675L32.0454 138.902C31.9667 139.368 31.9905 139.845 32.1152 140.301C32.24 140.756 32.4626 141.179 32.7675 141.539C33.0724 141.9 33.4524 142.19 33.8808 142.388C34.3092 142.587 34.7758 142.69 35.248 142.689C35.4292 142.689 35.61 142.674 35.789 142.646L111.224 130.073C112.536 129.855 113.767 129.295 114.793 128.45C115.82 127.605 116.606 126.504 117.072 125.259L128.93 93.6328L144.478 78.0849C145.182 77.3825 145.741 76.5476 146.12 75.6284C146.5 74.7091 146.694 73.7237 146.691 72.7291ZM110.986 122.981C110.919 123.159 110.807 123.315 110.661 123.436C110.515 123.557 110.34 123.637 110.153 123.668L44.7098 134.574L73.3117 105.967C76.2461 107.777 79.743 108.446 83.1382 107.848C86.5335 107.249 89.5906 105.424 91.729 102.72C93.8673 100.015 94.9379 96.6196 94.7375 93.1778C94.537 89.736 93.0794 86.4877 90.6416 84.0498C88.2037 81.6119 84.9554 80.1543 81.5136 79.9539C78.0717 79.7534 74.6762 80.824 71.9717 82.9624C69.2673 85.1007 67.4425 88.1578 66.8438 91.5531C66.2451 94.9484 66.9142 98.4453 68.7241 101.38L40.1169 129.992L51.0285 64.5332C51.0604 64.3479 51.1401 64.1741 51.2596 64.029C51.3791 63.8838 51.5344 63.7724 51.7102 63.7055L82.0378 52.3448L122.347 92.6536L110.986 122.981ZM73.1169 94.0006C73.1169 92.5027 73.5611 91.0384 74.3933 89.7929C75.2256 88.5474 76.4084 87.5766 77.7924 87.0034C79.1763 86.4301 80.6991 86.2801 82.1683 86.5724C83.6375 86.8646 84.987 87.5859 86.0462 88.6452C87.1054 89.7044 87.8267 91.0539 88.119 92.5231C88.4112 93.9922 88.2612 95.5151 87.688 96.899C87.1147 98.2829 86.144 99.4658 84.8985 100.298C83.653 101.13 82.1887 101.574 80.6907 101.574C78.682 101.574 76.7556 100.776 75.3352 99.3561C73.9149 97.9357 73.1169 96.0093 73.1169 94.0006ZM139.88 73.4973L126.133 87.2437L87.4422 48.558L101.194 34.8061C101.295 34.7055 101.414 34.6257 101.545 34.5713C101.677 34.5168 101.817 34.4888 101.96 34.4888C102.102 34.4888 102.242 34.5168 102.374 34.5713C102.505 34.6257 102.625 34.7055 102.725 34.8061L139.88 71.9663C139.98 72.0668 140.06 72.1862 140.115 72.3175C140.169 72.4489 140.197 72.5896 140.197 72.7318C140.197 72.874 140.169 73.0148 140.115 73.1462C140.06 73.2775 139.98 73.3968 139.88 73.4973Z" fill="white"/>
</svg>
